<svg xmlns="http://www.w3.org/2000/svg" width="318.783" height="56.369" viewBox="0 0 318.783 56.369"><path fill="#FFF" d="M47.996 12.776L26.68.47a3.638 3.638 0 0 0-3.577 0L1.788 12.775A3.59 3.59 0 0 0 0 15.875v24.612c0 1.272.686 2.46 1.788 3.098L23.103 55.89a3.578 3.578 0 0 0 3.578 0l21.315-12.306a3.59 3.59 0 0 0 1.79-3.1v-24.61c0-1.275-.687-2.46-1.79-3.098M35.68 41.822c-.295.298-.688.444-1.2.444h-.133c-1.907 0-3.458-.63-4.74-1.922-1.282-1.293-1.906-2.84-1.906-4.73l-.035-6.276c0-.888-.334-1.69-.966-2.325-1.28-1.278-3.43-1.244-4.68-.02-.634.622-.97 1.435-.97 2.35v7.625c0 .506-.148.896-.455 1.194-.31.304-.71.448-1.222.448-.51 0-.905-.146-1.203-.446-.295-.292-.44-.687-.44-1.196V13.785c0-.507.143-.9.44-1.2.3-.3.692-.447 1.203-.447.51 0 .91.148 1.223.452.306.297.454.688.454 1.195v9.793c.274-.155.568-.3.85-.402.916-.326 1.61-.453 2.474-.453 1.887 0 3.434.624 4.728 1.908 1.29 1.285 1.918 2.825 1.918 4.71v6.274c0 .91.334 1.73.966 2.36a3.263 3.263 0 0 0 2.36.966h.133c.505 0 .895.15 1.193.455.303.312.45.713.45 1.225 0 .51-.146.902-.445 1.202M67.03 22.04c-1.414 0-2.74.367-3.937 1.09a7.89 7.89 0 0 0-1.402 1.068v-8.302c0-.72-.476-1.205-1.186-1.205s-1.188.486-1.188 1.206v23.662c0 .563.373 1.135 1.276 1.135.546 0 1.1-.373 1.1-1.205l-.002-9.94c.063-1.425.6-2.604 1.644-3.607 1.043-1 2.263-1.487 3.732-1.487 1.463 0 2.68.507 3.723 1.548 1.04 1.043 1.547 2.272 1.547 3.76v9.728c0 .72.484 1.205 1.205 1.205.33 0 .635-.14.86-.396.203-.23.31-.51.31-.81v-9.73c0-2.133-.757-3.972-2.25-5.466-1.494-1.492-3.322-2.25-5.43-2.25M89.15 22.042c-2.443 0-4.553.927-6.27 2.757-1.7 1.814-2.564 4.024-2.564 6.567s.863 4.753 2.565 6.567c1.716 1.83 3.826 2.758 6.27 2.758 2.443 0 4.56-.928 6.287-2.756 1.715-1.816 2.584-4.027 2.584-6.57 0-2.542-.868-4.752-2.584-6.57-1.728-1.83-3.843-2.754-6.285-2.754m0 16.273c-1.782 0-3.27-.66-4.545-2.02-1.288-1.374-1.914-2.986-1.914-4.93 0-1.946.627-3.558 1.915-4.93 1.275-1.36 2.763-2.02 4.546-2.02 1.785 0 3.278.66 4.565 2.022 1.3 1.373 1.93 2.984 1.93 4.927 0 1.942-.63 3.555-1.93 4.927-1.287 1.363-2.78 2.025-4.564 2.025M111.025 22.04a7.434 7.434 0 0 0-3.924 1.09c-.505.308-.966.66-1.38 1.057v-.976c0-.7-.477-1.17-1.187-1.17s-1.188.47-1.188 1.17V39.56c0 .16.037.315.108.453a.83.83 0 0 0 .585.582c.113.064.24.1.373.1h.14c.7 0 1.17-.483 1.17-1.204v-9.766c0-1.486.51-2.714 1.563-3.754 1.054-1.044 2.28-1.55 3.742-1.55s2.68.506 3.723 1.547c1.04 1.042 1.548 2.27 1.548 3.76v9.763c0 .722.477 1.205 1.187 1.205s1.188-.483 1.188-1.205v-9.764c0-2.112-.756-3.938-2.25-5.432-1.494-1.494-3.31-2.25-5.395-2.25M139.144 24.526c-1.713-1.65-3.808-2.485-6.226-2.485-2.428 0-4.546.92-6.297 2.734-1.738 1.802-2.644 4.015-2.694 6.607.05 2.542.956 4.743 2.695 6.545 1.75 1.81 3.894 2.74 6.38 2.768h.006c1.528 0 2.98-.395 4.315-1.17a9.33 9.33 0 0 0 3.196-3.035c.248-.356.254-.68.215-.89s-.163-.512-.537-.763a1.265 1.265 0 0 0-.696-.225c-.216 0-.626.067-.972.565a6.593 6.593 0 0 1-2.344 2.296 6.22 6.22 0 0 1-3.165.847c-1.863-.022-3.413-.697-4.738-2.066-1.177-1.213-1.82-2.604-1.95-4.237h14.484c.477 0 1.03-.274 1.16-1.047a.733.733 0 0 0 .01-.124v-.194c-.177-2.42-1.13-4.48-2.836-6.122m-12.665 5.146c.32-1.367 1.004-2.515 2.077-3.49 1.282-1.165 2.732-1.73 4.432-1.73 1.698 0 3.14.565 4.41 1.727 1.063.975 1.744 2.124 2.063 3.492H126.48zM160.103 22.298a1.233 1.233 0 0 0-.263-.176c-.104-.053-.326-.08-.444-.08-.3 0-.578.106-.813.31-.324.288-.392.607-.392.825l.002 10.047c-.063 1.402-.584 2.566-1.596 3.558-1.007.985-2.192 1.466-3.623 1.466-1.43 0-2.63-.5-3.672-1.533-1.038-1.027-1.544-2.238-1.544-3.7v-9.767c0-.298-.106-.577-.31-.81a1.137 1.137 0 0 0-.86-.395c-.72 0-1.205.485-1.205 1.205v9.766c0 2.088.752 3.897 2.233 5.38 1.48 1.478 3.302 2.23 5.413 2.23 1.39 0 2.69-.355 3.865-1.05.48-.284.912-.61 1.3-.977v.364c0 1.794-.614 3.28-1.88 4.546-1.265 1.267-2.75 1.882-4.544 1.882-.95 0-1.896-.232-2.84-.703-.635-.29-1.26-.035-1.514.57-.21.396-.177.72-.108.928.07.213.245.502.627.66 1.222.61 2.512.92 3.836.92 2.437 0 4.535-.87 6.237-2.586 1.7-1.713 2.562-3.805 2.562-6.216V23.247c0-.325-.15-.635-.462-.948M176.696 23.916c1.95 0 3.648.548 5.063 1.642a.82.82 0 0 0 .432.142c.145 0 .352-.052.52-.3.218-.32.19-.66-.103-.95-1.605-1.266-3.583-1.91-5.88-1.91-2.307 0-4.373.873-6.14 2.592-1.77 1.72-2.666 3.816-2.666 6.234 0 2.42.896 4.51 2.665 6.218 1.767 1.706 3.918 2.583 6.4 2.606 2.08 0 3.968-.642 5.64-1.928.277-.277.29-.623.036-.945-.256-.322-.573-.402-.927-.164-1.44 1.104-3.038 1.662-4.75 1.662-2.138 0-3.974-.734-5.46-2.187-1.48-1.448-2.23-3.22-2.23-5.264s.75-3.814 2.23-5.263c1.49-1.45 3.227-2.184 5.166-2.184M197.017 22.542c-2.303 0-4.29.875-5.906 2.6-1.61 1.718-2.43 3.812-2.43 6.225s.818 4.507 2.43 6.227c1.618 1.726 3.605 2.6 5.907 2.6 2.3 0 4.29-.874 5.922-2.6 1.622-1.72 2.445-3.815 2.445-6.227 0-2.412-.823-4.507-2.446-6.227-1.632-1.724-3.627-2.598-5.923-2.598m0 16.273c-1.902 0-3.556-.732-4.912-2.178-1.36-1.45-2.05-3.224-2.05-5.27 0-2.05.69-3.823 2.05-5.273 1.356-1.445 3.01-2.178 4.912-2.178 1.9 0 3.56.733 4.928 2.18 1.37 1.45 2.065 3.222 2.065 5.27 0 2.048-.694 3.82-2.065 5.27-1.37 1.447-3.028 2.18-4.928 2.18M231.77 22.54a7.02 7.02 0 0 0-4.116 1.29 6.977 6.977 0 0 0-2.357 2.792 6.986 6.986 0 0 0-2.357-2.793c-1.22-.855-2.545-1.29-3.942-1.29-1.394 0-2.654.337-3.75 1a7.12 7.12 0 0 0-2.125 1.96v-2.254c0-.44-.25-.705-.67-.705s-.67.265-.67.706l.002 5.604a7.22 7.22 0 0 0-.072.87v9.765c0 .377.215.633.636.705h.103c.146 0 .278-.05.39-.146l.035-.02a.24.24 0 0 0 .126-.145l.106-.315a.24.24 0 0 0 .013-.08V29.483c.045-1.534.63-2.86 1.744-3.94 1.112-1.08 2.467-1.627 4.024-1.627 1.558 0 2.917.57 4.044 1.694 1.123 1.125 1.692 2.51 1.692 4.112v9.766c0 .44.25.705.67.705.206 0 .386-.07.526-.213a.27.27 0 0 0 .057-.084l.058-.146c.062-.1.062-.22.062-.265V29.483c.046-1.535.633-2.86 1.745-3.94 1.113-1.08 2.467-1.627 4.025-1.627 1.556 0 2.908.57 4.02 1.693 1.115 1.123 1.68 2.506 1.68 4.112v9.766c0 .185.07.35.215.492a.68.68 0 0 0 .49.213c.42 0 .67-.265.67-.705v-9.766c0-1.973-.695-3.68-2.064-5.076-1.377-1.397-3.06-2.105-5.01-2.105M253.854 22.542c-1.627 0-3.14.45-4.494 1.336a8.793 8.793 0 0 0-2.642 2.68V15.966a.81.81 0 0 0-.194-.507c-.144-.18-.303-.27-.476-.27-.44 0-.705.29-.705.776v23.52c0 .44.265.705.705.705a.633.633 0 0 0 .49-.227c.12-.14.18-.3.18-.478v-3.29a8.845 8.845 0 0 0 2.642 2.66 8.065 8.065 0 0 0 4.494 1.335c2.37 0 4.414-.88 6.078-2.614 1.66-1.73 2.502-3.833 2.502-6.246 0-2.41-.843-4.5-2.504-6.21-1.66-1.712-3.708-2.578-6.076-2.578m.017 16.273c-1.96 0-3.66-.738-5.05-2.197-1.396-1.46-2.103-3.238-2.103-5.287v-.306c.067-1.955.81-3.646 2.2-5.027s3.077-2.08 5.005-2.08 3.616.727 5.02 2.164c1.404 1.44 2.115 3.205 2.115 5.25 0 2.05-.713 3.828-2.117 5.288-1.4 1.46-3.106 2.197-5.07 2.197M281.94 24.887c-1.617-1.557-3.596-2.346-5.88-2.346-2.286 0-4.286.87-5.937 2.58-1.648 1.71-2.51 3.81-2.555 6.25.046 2.41.904 4.5 2.555 6.208 1.648 1.71 3.677 2.59 6.02 2.614h.005a7.97 7.97 0 0 0 4.062-1.104 8.856 8.856 0 0 0 3.036-2.89c.12-.173.164-.345.133-.51-.033-.17-.142-.316-.322-.437a.764.764 0 0 0-.42-.143c-.146 0-.355.056-.547.326a7.072 7.072 0 0 1-2.52 2.47 6.727 6.727 0 0 1-3.42.91c-1.98-.02-3.69-.77-5.093-2.216-1.37-1.414-2.082-3.125-2.115-5.09h15.01c.355 0 .6-.228.67-.67l-.002-.158c-.164-2.29-1.066-4.24-2.68-5.793m1.273 5.285H269.02a7.266 7.266 0 0 1 2.347-4.36c1.36-1.235 2.963-1.86 4.768-1.86s3.4.624 4.747 1.86c1.277 1.172 2.06 2.637 2.33 4.36M299.494 22.54c-2.736 0-5.104 1.463-7.033 4.346-.218.323-.428.675-.626 1.053v-4.694c0-.44-.25-.705-.67-.705a.64.64 0 0 0-.487.227.71.71 0 0 0-.183.48l.008 7.953a.603.603 0 0 0-.008.314v7.97c0 .442.25.706.67.706s.67-.264.67-.705v-7.97c1.772-5.02 4.35-7.564 7.66-7.564.44 0 .705-.263.705-.704s-.263-.705-.706-.705M317.443 31.918c-.35-.324-.854-.618-1.496-.87a17.514 17.514 0 0 0-1.562-.552c-.41-.117-1.17-.302-2.323-.563-1.104-.25-2.08-.584-2.904-.996-.988-.473-1.47-1.233-1.47-2.33 0-.832.4-1.52 1.226-2.106.84-.596 1.862-.898 3.04-.898 1.813 0 3.31.576 4.442 1.71a.654.654 0 0 0 .64.19.717.717 0 0 0 .504-.44c.11-.26.068-.506-.093-.662-.382-.56-1.21-1.093-2.523-1.63-.92-.384-2.035-.58-3.317-.58-1.312 0-2.534.43-3.636 1.278-1.12.862-1.687 1.912-1.687 3.12 0 1.203.438 2.213 1.305 3.002.328.306.816.588 1.49.87.662.275 1.165.458 1.54.555.36.094.977.24 1.844.438a31.85 31.85 0 0 1 2.493.675c.57.197 1.144.546 1.703 1.037.482.42.72 1.023.72 1.842 0 1.043-.51 1.915-1.56 2.666-1.06.76-2.36 1.145-3.86 1.145-.945 0-1.914-.2-2.882-.594-.978-.397-1.66-.736-2.028-1.004a9.594 9.594 0 0 1-.767-.596c-.207-.19-.44-.25-.67-.175a.724.724 0 0 0-.45.467c-.093.255-.027.51.18.716.674.675 1.773 1.317 3.273 1.912 1.118.43 2.243.646 3.344.646 1.89 0 3.514-.5 4.822-1.482 1.33-1.003 2.007-2.194 2.007-3.543-.004-1.34-.455-2.434-1.344-3.247"/></svg>